<?xml version="1.0" encoding="UTF-8" standalone="no"?>
<svg
   xmlns:dc="http://purl.org/dc/elements/1.1/"
   xmlns:cc="http://creativecommons.org/ns#"
   xmlns:rdf="http://www.w3.org/1999/02/22-rdf-syntax-ns#"
   xmlns:svg="http://www.w3.org/2000/svg"
   xmlns="http://www.w3.org/2000/svg"
   xmlns:sodipodi="http://sodipodi.sourceforge.net/DTD/sodipodi-0.dtd"
   xmlns:inkscape="http://www.inkscape.org/namespaces/inkscape"
   height="40"
   width="40"
   version="1.1"
   id="svg4"
   sodipodi:docname="bed.svg"
   inkscape:version="0.92.5 (2060ec1f9f, 2020-04-08)">
  <metadata
     id="metadata10">
    <rdf:RDF>
      <cc:Work
         rdf:about="">
        <dc:format>image/svg+xml</dc:format>
        <dc:type
           rdf:resource="http://purl.org/dc/dcmitype/StillImage" />
      </cc:Work>
    </rdf:RDF>
  </metadata>
  <defs
     id="defs8" />
  <sodipodi:namedview
     pagecolor="#ffffff"
     bordercolor="#666666"
     borderopacity="1"
     objecttolerance="10"
     gridtolerance="10"
     guidetolerance="10"
     inkscape:pageopacity="0"
     inkscape:pageshadow="2"
     inkscape:window-width="1440"
     inkscape:window-height="836"
     id="namedview6"
     showgrid="false"
     inkscape:zoom="5.9"
     inkscape:cx="-1.9491525"
     inkscape:cy="20"
     inkscape:window-x="0"
     inkscape:window-y="27"
     inkscape:window-maximized="1"
     inkscape:current-layer="svg4" />
  <path
     d="M3.333 31.667V21.25q0-1.083.438-2 .437-.917 1.229-1.542v-4.75Q5 11 6.333 9.667q1.334-1.334 3.292-1.334h7.208q.917 0 1.729.396.813.396 1.438 1.063.625-.667 1.417-1.063.791-.396 1.708-.396h7.25q1.917 0 3.271 1.334Q35 11 35 12.958v4.75q.792.625 1.229 1.542.438.917.438 2v10.417h-2.792v-3.334H6.125v3.334Zm18.042-14.875h10.833v-3.834q0-.791-.521-1.312-.52-.521-1.312-.521h-7.333q-.709 0-1.188.542-.479.541-.479 1.291Zm-13.583 0h10.833v-3.834q0-.75-.479-1.291-.479-.542-1.188-.542H9.625q-.792 0-1.313.521-.52.521-.52 1.312Zm-1.667 8.75h27.75V21.25q0-.708-.479-1.188-.479-.479-1.188-.479H7.792q-.709 0-1.188.479-.479.48-.479 1.188Zm27.75 0H6.125 33.875Z"
     id="path2"
     style="fill:#72ae18;fill-opacity:1" />
</svg>
