<?xml version="1.0" encoding="UTF-8" standalone="no"?>
<svg
   xmlns:dc="http://purl.org/dc/elements/1.1/"
   xmlns:cc="http://creativecommons.org/ns#"
   xmlns:rdf="http://www.w3.org/1999/02/22-rdf-syntax-ns#"
   xmlns:svg="http://www.w3.org/2000/svg"
   xmlns="http://www.w3.org/2000/svg"
   xmlns:sodipodi="http://sodipodi.sourceforge.net/DTD/sodipodi-0.dtd"
   xmlns:inkscape="http://www.inkscape.org/namespaces/inkscape"
   height="40"
   width="40"
   version="1.1"
   id="svg4"
   sodipodi:docname="calendar.svg"
   inkscape:version="0.92.5 (2060ec1f9f, 2020-04-08)">
  <metadata
     id="metadata10">
    <rdf:RDF>
      <cc:Work
         rdf:about="">
        <dc:format>image/svg+xml</dc:format>
        <dc:type
           rdf:resource="http://purl.org/dc/dcmitype/StillImage" />
      </cc:Work>
    </rdf:RDF>
  </metadata>
  <defs
     id="defs8" />
  <sodipodi:namedview
     pagecolor="#ffffff"
     bordercolor="#666666"
     borderopacity="1"
     objecttolerance="10"
     gridtolerance="10"
     guidetolerance="10"
     inkscape:pageopacity="0"
     inkscape:pageshadow="2"
     inkscape:window-width="1440"
     inkscape:window-height="836"
     id="namedview6"
     showgrid="false"
     inkscape:zoom="5.9"
     inkscape:cx="-1.9491525"
     inkscape:cy="20"
     inkscape:window-x="0"
     inkscape:window-y="27"
     inkscape:window-maximized="1"
     inkscape:current-layer="svg4" />
  <path
     d="M20 23.333q-.708 0-1.188-.479-.479-.479-.479-1.187 0-.709.479-1.188Q19.292 20 20 20t1.188.479q.479.479.479 1.188 0 .708-.479 1.187-.48.479-1.188.479Zm-6.667 0q-.708 0-1.187-.479-.479-.479-.479-1.187 0-.709.479-1.188T13.333 20q.709 0 1.188.479T15 21.667q0 .708-.479 1.187-.479.479-1.188.479Zm13.334 0q-.709 0-1.188-.479T25 21.667q0-.709.479-1.188T26.667 20q.708 0 1.187.479.479.479.479 1.188 0 .708-.479 1.187-.479.479-1.187.479ZM20 30q-.708 0-1.188-.479-.479-.479-.479-1.188 0-.708.479-1.187.48-.479 1.188-.479t1.188.479q.479.479.479 1.187 0 .709-.479 1.188Q20.708 30 20 30Zm-6.667 0q-.708 0-1.187-.479-.479-.479-.479-1.188 0-.708.479-1.187.479-.479 1.187-.479.709 0 1.188.479T15 28.333q0 .709-.479 1.188T13.333 30Zm13.334 0q-.709 0-1.188-.479T25 28.333q0-.708.479-1.187.479-.479 1.188-.479.708 0 1.187.479.479.479.479 1.187 0 .709-.479 1.188T26.667 30ZM7.792 36.667q-1.125 0-1.959-.834Q5 35 5 33.875v-25q0-1.125.833-1.937.834-.813 1.959-.813h2.333V3.333h2.917v2.792h13.916V3.333h2.917v2.792h2.333q1.125 0 1.959.813Q35 7.75 35 8.875v25q0 1.125-.833 1.958-.834.834-1.959.834Zm0-2.792h24.416v-17.5H7.792v17.5Zm0-20.25h24.416v-4.75H7.792Zm0 0v-4.75 4.75Z"
     id="path2"
     style="fill:#72ae18;fill-opacity:1" />
</svg>
