<?xml version="1.0" encoding="UTF-8" standalone="no"?>
<svg
   xmlns:dc="http://purl.org/dc/elements/1.1/"
   xmlns:cc="http://creativecommons.org/ns#"
   xmlns:rdf="http://www.w3.org/1999/02/22-rdf-syntax-ns#"
   xmlns:svg="http://www.w3.org/2000/svg"
   xmlns="http://www.w3.org/2000/svg"
   height="41.900002"
   width="170.81412"
   version="1.1"
   id="svg4">
  <metadata
     id="metadata10">
    <rdf:RDF>
      <cc:Work
         rdf:about="">
        <dc:format>image/svg+xml</dc:format>
        <dc:type
           rdf:resource="http://purl.org/dc/dcmitype/StillImage" />
        <dc:title></dc:title>
      </cc:Work>
    </rdf:RDF>
  </metadata>
  <defs
     id="defs8" />
  <g
     id="text823"
     style="font-style:normal;font-variant:normal;font-weight:bold;font-stretch:normal;font-size:40px;line-height:1.25;font-family:Montserrat;-inkscape-font-specification:'Montserrat Bold';letter-spacing:0px;word-spacing:0px;fill:#72ae18;fill-opacity:1;stroke:none"
     aria-label="LAND" />
  <g
     id="g1004">
    <path
       id="path2"
       d="M 36.5,27.25 V 11.15 L 26,3.8 15.5,11.15 v 6.45 h -3 V 9.65 L 26,0 39.5,9.65 v 17.6 z M 26,3.8 q 0,0 0,0 0,0 0,0 z M 27,14 h 2 v -2 h -2 z m -4,0 h 2 v -2 h -2 z m 4,4 h 2 v -2 h -2 z m -4,0 h 2 V 16 H 23 Z M 26.3,41.9 10.75,37.45 V 40.3 H 0 V 20.6 h 15.45 l 12.75,4.8 q 1.35,0.5 2.275,1.625 0.925,1.125 0.925,3.225 h 5.7 q 2.1,0 3.5,1.5 1.4,1.5 1.4,4.05 v 1.3 z M 3,37.3 H 7.7 V 23.6 H 3 Z m 23.1,1.5 12.8,-3.9 Q 38.6,33.95 38.15,33.6 37.7,33.25 37.1,33.25 H 26.75 q -1.5,0 -2.775,-0.2 Q 22.7,32.85 21.55,32.5 l -4.05,-1.25 1.1,-2.9 3.65,1.2 q 1.25,0.4 2.375,0.55 1.125,0.15 3.575,0.15 0,-0.6 -0.225,-1.175 Q 27.75,28.5 27.2,28.25 L 14.95,23.6 h -4.2 V 34.3 Z M 7.7,30.45 Z m 20.5,-0.2 q 0,0 0,0 0,0 0,0 0,0 0,0 0,0 0,0 0,0 0,0 0,0 0,0 0,0 0,0 0,0 0,0 z m -20.5,0.2 z m 3.05,0 q 0,0 0,0 0,0 0,0 0,0 0,0 0,0 0,0 0,0 0,0 0,0 0,0 0,0 0,0 0,0 0,0 z"
       style="fill:#72ae18;fill-opacity:1" />
    <g
       aria-label="DREAM"
       style="font-style:normal;font-variant:normal;font-weight:bold;font-stretch:normal;font-size:40px;line-height:1.25;font-family:Montserrat;-inkscape-font-specification:'Montserrat Bold';letter-spacing:0px;word-spacing:0px;fill:#ffffff;fill-opacity:1;stroke:none"
       id="text819">
      <path
         d="M 44.565798,18.382362 V 5.3156961 h 5.935999 q 2.128,0 3.752,0.8213333 1.624,0.8026667 2.538667,2.2586666 0.914666,1.456 0.914666,3.453333 0,1.978667 -0.914666,3.453333 -0.914667,1.456 -2.538667,2.277334 -1.624,0.802666 -3.752,0.802666 z m 3.023999,-2.482666 h 2.762667 q 1.306667,0 2.258667,-0.485334 0.970666,-0.504 1.493333,-1.418666 0.541333,-0.914667 0.541333,-2.146667 0,-1.250666 -0.541333,-2.1466663 -0.522667,-0.9146667 -1.493333,-1.4 -0.952,-0.504 -2.258667,-0.504 h -2.762667 z"
         style="font-size:18.66666603px;fill:#ffffff"
         id="path963" />
      <path
         d="M 59.984432,18.382362 V 5.3156961 h 5.656 q 1.754666,0 3.024,0.5786667 1.269333,0.56 1.96,1.6239999 0.690666,1.064 0.690666,2.5386663 0,1.456 -0.690666,2.52 -0.690667,1.045334 -1.96,1.605334 -1.269334,0.559999 -3.024,0.559999 h -3.976 l 1.344,-1.325333 v 4.965333 z m 8.306666,0 -3.266666,-4.741333 h 3.229333 l 3.304,4.741333 z m -5.282666,-4.629333 -1.344,-1.418666 h 3.808 q 1.4,0 2.090666,-0.597334 0.690667,-0.616 0.690667,-1.68 0,-1.0826663 -0.690667,-1.6799996 -0.690666,-0.5973333 -2.090666,-0.5973333 h -3.808 l 1.344,-1.4373333 z"
         style="font-size:18.66666603px;fill:#ffffff"
         id="path965" />
      <path
         d="m 76.485742,10.579696 h 6.290666 v 2.352 h -6.290666 z m 0.224,5.376 h 7.111999 v 2.426666 H 73.704408 V 5.3156961 h 9.874667 v 2.4266666 h -6.869333 z"
         style="font-size:18.66666603px;fill:#ffffff"
         id="path967" />
      <path
         d="m 84.512397,18.382362 5.824,-13.0666659 h 2.986666 L 99.16573,18.382362 H 95.992397 L 91.21373,6.8463628 h 1.194667 L 87.611064,18.382362 Z m 2.912,-2.8 0.802667,-2.295999 h 6.719999 l 0.821334,2.295999 z"
         style="font-size:18.66666603px;fill:#ffffff"
         id="path969" />
      <path
         d="M 100.52838,18.382362 V 5.3156961 h 2.50133 l 5.56267,9.2213329 h -1.32534 l 5.46933,-9.2213329 h 2.48267 l 0.0373,13.0666659 h -2.83733 l -0.0187,-8.7173327 h 0.52267 l -4.368,7.3359997 h -1.36266 l -4.46134,-7.3359997 h 0.63467 v 8.7173327 z"
         style="font-size:18.66666603px;fill:#ffffff"
         id="path971" />
    </g>
    <path
       d="M 119.42481,18.321594 V 5.254928 h 0.952 v 12.208 h 7.52267 v 0.858666 z"
       style="font-style:normal;font-variant:normal;font-weight:300;font-stretch:normal;font-size:18.66666603px;line-height:1.25;font-family:Montserrat;-inkscape-font-specification:'Montserrat Light';letter-spacing:0px;word-spacing:0px;fill:#72ae18;fill-opacity:1;stroke:none"
       id="path954" />
    <path
       d="m 128.16079,18.321594 6.01067,-13.066666 h 0.952 l 6.01067,13.066666 h -1.02667 L 134.43279,5.8522613 h 0.41067 l -5.656,12.4693327 z m 2.20267,-3.677333 0.31733,-0.802667 h 7.82134 l 0.31733,0.802667 z"
       style="font-style:normal;font-variant:normal;font-weight:300;font-stretch:normal;font-size:18.66666603px;line-height:1.25;font-family:Montserrat;-inkscape-font-specification:'Montserrat Light';letter-spacing:0px;word-spacing:0px;fill:#72ae18;fill-opacity:1;stroke:none"
       id="path956" />
    <path
       d="M 143.50479,18.321594 V 5.254928 h 0.80267 l 9.31466,11.890666 h -0.42933 V 5.254928 h 0.952 v 13.066666 h -0.784 L 144.02746,6.430928 h 0.42933 v 11.890666 z"
       style="font-style:normal;font-variant:normal;font-weight:300;font-stretch:normal;font-size:18.66666603px;line-height:1.25;font-family:Montserrat;-inkscape-font-specification:'Montserrat Light';letter-spacing:0px;word-spacing:0px;fill:#72ae18;fill-opacity:1;stroke:none"
       id="path958" />
    <path
       d="M 158.69944,18.321594 V 5.254928 h 5.17067 q 2.072,0 3.64,0.84 1.568,0.84 2.42666,2.3146666 0.87734,1.4746666 0.87734,3.3786664 0,1.904 -0.87734,3.378667 -0.85866,1.474666 -2.42666,2.314666 -1.568,0.84 -3.64,0.84 z m 0.952,-0.858666 h 4.144 q 1.848,0 3.21067,-0.728 1.36266,-0.728 2.10933,-1.997334 0.74667,-1.288 0.74667,-2.949333 0,-1.661333 -0.74667,-2.9306664 -0.74667,-1.288 -2.10933,-2.016 -1.36267,-0.7279999 -3.21067,-0.7279999 h -4.144 z"
       style="font-style:normal;font-variant:normal;font-weight:300;font-stretch:normal;font-size:18.66666603px;line-height:1.25;font-family:Montserrat;-inkscape-font-specification:'Montserrat Light';letter-spacing:0px;word-spacing:0px;fill:#72ae18;fill-opacity:1;stroke:none"
       id="path960" />
    <g
       aria-label="SINGLE PROPERTY"
       style="font-style:normal;font-variant:normal;font-weight:bold;font-stretch:normal;font-size:16px;line-height:1.25;font-family:Montserrat;-inkscape-font-specification:'Montserrat Bold';letter-spacing:0px;word-spacing:0px;fill:#ffffff;fill-opacity:1;stroke:none"
       id="text827">
      <path
         d="m 47.000985,31.328656 q -0.832,0 -1.6,-0.266667 -0.757333,-0.277333 -1.173333,-0.704 l 0.309333,-0.608 q 0.394667,0.384 1.056,0.650667 0.672,0.256 1.408,0.256 0.704,0 1.141333,-0.170667 0.448001,-0.181333 0.650667,-0.48 0.213334,-0.298666 0.213334,-0.661333 0,-0.437333 -0.256,-0.704 -0.245334,-0.266667 -0.650667,-0.416 -0.405334,-0.16 -0.896,-0.277333 -0.490667,-0.117334 -0.981334,-0.245334 -0.490666,-0.138666 -0.906666,-0.362666 -0.405334,-0.224 -0.661334,-0.586667 -0.245333,-0.373333 -0.245333,-0.970667 0,-0.554666 0.288,-1.013333 0.298667,-0.469333 0.906667,-0.746667 0.608,-0.288 1.557333,-0.288 0.629333,0 1.248,0.181334 0.618667,0.170666 1.066667,0.48 l -0.266667,0.629333 q -0.48,-0.32 -1.024,-0.469333 -0.533333,-0.149334 -1.034667,-0.149334 -0.672,0 -1.109333,0.181334 -0.437333,0.181333 -0.650667,0.490666 -0.202666,0.298667 -0.202666,0.682667 0,0.437333 0.245333,0.704 0.256,0.266667 0.661333,0.416 0.416,0.149333 0.906667,0.266667 0.490667,0.117333 0.970667,0.256 0.490667,0.138666 0.896,0.362666 0.416,0.213334 0.661333,0.576 0.256,0.362667 0.256,0.949334 0,0.544 -0.298666,1.013333 -0.298667,0.458667 -0.917334,0.746667 -0.608,0.277333 -1.568,0.277333 z"
         style="font-style:normal;font-variant:normal;font-weight:normal;font-stretch:normal;font-size:10.66666698px;font-family:Montserrat;-inkscape-font-specification:Montserrat;fill:#ffffff"
         id="path925" />
      <path
         d="m 51.502316,31.264656 v -7.466667 h 0.789333 v 7.466667 z"
         style="font-style:normal;font-variant:normal;font-weight:normal;font-stretch:normal;font-size:10.66666698px;font-family:Montserrat;-inkscape-font-specification:Montserrat;fill:#ffffff"
         id="path927" />
      <path
         d="m 54.723629,31.264656 v -7.466667 h 0.650667 l 5.152,6.485334 h -0.341333 v -6.485334 h 0.778667 v 7.466667 h -0.650667 l -5.141334,-6.485333 h 0.341334 v 6.485333 z"
         style="font-style:normal;font-variant:normal;font-weight:normal;font-stretch:normal;font-size:10.66666698px;font-family:Montserrat;-inkscape-font-specification:Montserrat;fill:#ffffff"
         id="path929" />
      <path
         d="m 66.670293,31.328656 q -0.853333,0 -1.578666,-0.277333 -0.714667,-0.288 -1.248,-0.8 -0.522667,-0.512 -0.821334,-1.205334 -0.288,-0.693333 -0.288,-1.514666 0,-0.821334 0.288,-1.514667 0.298667,-0.693333 0.832,-1.205333 0.533334,-0.512 1.248,-0.789334 0.725334,-0.288 1.578667,-0.288 0.853333,0 1.557333,0.266667 0.714667,0.266667 1.216,0.810667 l -0.490666,0.501333 q -0.469334,-0.469333 -1.034667,-0.672 -0.565333,-0.202667 -1.216,-0.202667 -0.693333,0 -1.28,0.234667 -0.576,0.224 -1.013333,0.650667 -0.426667,0.416 -0.672,0.981333 -0.234667,0.554667 -0.234667,1.226667 0,0.661333 0.234667,1.226666 0.245333,0.565334 0.672,0.992 0.437333,0.416 1.013333,0.650667 0.586667,0.224 1.269333,0.224 0.64,0 1.205334,-0.192 0.576,-0.192 1.056,-0.650667 l 0.448,0.597334 q -0.533334,0.469333 -1.248,0.714666 -0.714667,0.234667 -1.493334,0.234667 z m 1.984,-1.045333 v -2.752 h 0.757334 v 2.848 z"
         style="font-style:normal;font-variant:normal;font-weight:normal;font-stretch:normal;font-size:10.66666698px;font-family:Montserrat;-inkscape-font-specification:Montserrat;fill:#ffffff"
         id="path931" />
      <path
         d="m 71.640948,31.264656 v -7.466667 h 0.789333 v 6.784 h 4.181334 v 0.682667 z"
         style="font-style:normal;font-variant:normal;font-weight:normal;font-stretch:normal;font-size:10.66666698px;font-family:Montserrat;-inkscape-font-specification:Montserrat;fill:#ffffff"
         id="path933" />
      <path
         d="m 78.627604,27.136656 h 3.946666 v 0.672 h -3.946666 z m 0.08533,3.445333 h 4.490667 v 0.682667 h -5.280001 v -7.466667 h 5.120001 v 0.682667 h -4.330667 z"
         style="font-style:normal;font-variant:normal;font-weight:normal;font-stretch:normal;font-size:10.66666698px;font-family:Montserrat;-inkscape-font-specification:Montserrat;fill:#ffffff"
         id="path935" />
      <path
         d="m 87.854245,31.264656 v -7.466667 h 2.794666 q 0.949334,0 1.632,0.309334 0.682667,0.298666 1.045334,0.874666 0.373333,0.565334 0.373333,1.376 0,0.789334 -0.373333,1.365334 -0.362667,0.565333 -1.045334,0.874666 -0.682666,0.309334 -1.632,0.309334 h -2.357333 l 0.352,-0.373334 v 2.730667 z m 0.789333,-2.666667 -0.352,-0.384 h 2.336 q 1.12,0 1.696,-0.48 0.586667,-0.490666 0.586667,-1.376 0,-0.896 -0.586667,-1.386666 -0.576,-0.490667 -1.696,-0.490667 h -2.336 l 0.352,-0.373333 z"
         style="font-style:normal;font-variant:normal;font-weight:normal;font-stretch:normal;font-size:10.66666698px;font-family:Montserrat;-inkscape-font-specification:Montserrat;fill:#ffffff"
         id="path937" />
      <path
         d="m 95.406228,31.264656 v -7.466667 h 2.794666 q 0.949334,0 1.632,0.309334 0.682666,0.298666 1.045336,0.874666 0.37333,0.565334 0.37333,1.376 0,0.789334 -0.37333,1.365334 -0.36267,0.565333 -1.045336,0.874666 -0.682666,0.298667 -1.632,0.298667 h -2.357333 l 0.352,-0.362667 v 2.730667 z m 5.098662,0 -1.919996,-2.709333 h 0.853334 l 1.930662,2.709333 z m -4.309329,-2.666667 -0.352,-0.373333 h 2.336 q 1.12,0 1.696,-0.490667 0.586669,-0.490666 0.586669,-1.376 0,-0.896 -0.586669,-1.386666 -0.576,-0.490667 -1.696,-0.490667 h -2.336 l 0.352,-0.373333 z"
         style="font-style:normal;font-variant:normal;font-weight:normal;font-stretch:normal;font-size:10.66666698px;font-family:Montserrat;-inkscape-font-specification:Montserrat;fill:#ffffff"
         id="path939" />
      <path
         d="m 106.38222,31.328656 q -0.84266,0 -1.568,-0.277333 -0.71466,-0.288 -1.248,-0.8 -0.52266,-0.522667 -0.82133,-1.205334 -0.288,-0.693333 -0.288,-1.514666 0,-0.821334 0.288,-1.504 0.29867,-0.693334 0.82133,-1.205334 0.53334,-0.522666 1.248,-0.8 0.71467,-0.288 1.568,-0.288 0.84267,0 1.55734,0.288 0.71466,0.277334 1.23733,0.789334 0.53333,0.512 0.82133,1.205333 0.29867,0.693333 0.29867,1.514667 0,0.821333 -0.29867,1.514666 -0.288,0.693334 -0.82133,1.205334 -0.52267,0.512 -1.23733,0.8 -0.71467,0.277333 -1.55734,0.277333 z m 0,-0.704 q 0.672,0 1.23734,-0.224 0.576,-0.234667 0.992,-0.650667 0.42666,-0.426666 0.66133,-0.981333 0.23467,-0.565333 0.23467,-1.237333 0,-0.672 -0.23467,-1.226667 -0.23467,-0.565333 -0.66133,-0.981333 -0.416,-0.426667 -0.992,-0.650667 -0.56534,-0.234667 -1.23734,-0.234667 -0.672,0 -1.248,0.234667 -0.576,0.224 -1.00266,0.650667 -0.416,0.416 -0.66134,0.981333 -0.23466,0.554667 -0.23466,1.226667 0,0.661333 0.23466,1.226666 0.24534,0.565334 0.66134,0.992 0.42666,0.416 1.00266,0.650667 0.576,0.224 1.248,0.224 z"
         style="font-style:normal;font-variant:normal;font-weight:normal;font-stretch:normal;font-size:10.66666698px;font-family:Montserrat;-inkscape-font-specification:Montserrat;fill:#ffffff"
         id="path941" />
      <path
         d="m 112.06755,31.264656 v -7.466667 h 2.79466 q 0.94934,0 1.632,0.309334 0.68267,0.298666 1.04534,0.874666 0.37333,0.565334 0.37333,1.376 0,0.789334 -0.37333,1.365334 -0.36267,0.565333 -1.04534,0.874666 -0.68266,0.309334 -1.632,0.309334 h -2.35733 l 0.352,-0.373334 v 2.730667 z m 0.78933,-2.666667 -0.352,-0.384 h 2.336 q 1.12,0 1.696,-0.48 0.58667,-0.490666 0.58667,-1.376 0,-0.896 -0.58667,-1.386666 -0.576,-0.490667 -1.696,-0.490667 h -2.336 l 0.352,-0.373333 z"
         style="font-style:normal;font-variant:normal;font-weight:normal;font-stretch:normal;font-size:10.66666698px;font-family:Montserrat;-inkscape-font-specification:Montserrat;fill:#ffffff"
         id="path943" />
      <path
         d="m 120.32353,27.136656 h 3.94666 v 0.672 h -3.94666 z m 0.0853,3.445333 h 4.49067 v 0.682667 h -5.28 v -7.466667 h 5.12 v 0.682667 h -4.33067 z"
         style="font-style:normal;font-variant:normal;font-weight:normal;font-stretch:normal;font-size:10.66666698px;font-family:Montserrat;-inkscape-font-specification:Montserrat;fill:#ffffff"
         id="path945" />
      <path
         d="m 126.75551,31.264656 v -7.466667 h 2.79467 q 0.94933,0 1.632,0.309334 0.68267,0.298666 1.04533,0.874666 0.37334,0.565334 0.37334,1.376 0,0.789334 -0.37334,1.365334 -0.36266,0.565333 -1.04533,0.874666 -0.68267,0.298667 -1.632,0.298667 h -2.35733 l 0.352,-0.362667 v 2.730667 z m 5.09867,0 -1.92,-2.709333 h 0.85333 l 1.93067,2.709333 z m -4.30933,-2.666667 -0.352,-0.373333 h 2.336 q 1.12,0 1.696,-0.490667 0.58666,-0.490666 0.58666,-1.376 0,-0.896 -0.58666,-1.386666 -0.576,-0.490667 -1.696,-0.490667 h -2.336 l 0.352,-0.373333 z"
         style="font-style:normal;font-variant:normal;font-weight:normal;font-stretch:normal;font-size:10.66666698px;font-family:Montserrat;-inkscape-font-specification:Montserrat;fill:#ffffff"
         id="path947" />
      <path
         d="m 135.8115,31.264656 v -6.784 h -2.624 v -0.682667 h 6.03734 v 0.682667 h -2.624 v 6.784 z"
         style="font-style:normal;font-variant:normal;font-weight:normal;font-stretch:normal;font-size:10.66666698px;font-family:Montserrat;-inkscape-font-specification:Montserrat;fill:#ffffff"
         id="path949" />
      <path
         d="m 142.21043,31.264656 v -2.773333 l 0.18133,0.490666 -3.168,-5.184 h 0.84267 l 2.784,4.554667 h -0.448 l 2.784,-4.554667 h 0.78933 l -3.168,5.184 0.18134,-0.490666 v 2.773333 z"
         style="font-style:normal;font-variant:normal;font-weight:normal;font-stretch:normal;font-size:10.66666698px;font-family:Montserrat;-inkscape-font-specification:Montserrat;fill:#ffffff"
         id="path951" />
    </g>
  </g>
</svg>
