<?xml version="1.0" encoding="UTF-8" standalone="no"?>
<svg
   xmlns:dc="http://purl.org/dc/elements/1.1/"
   xmlns:cc="http://creativecommons.org/ns#"
   xmlns:rdf="http://www.w3.org/1999/02/22-rdf-syntax-ns#"
   xmlns:svg="http://www.w3.org/2000/svg"
   xmlns="http://www.w3.org/2000/svg"
   id="svg4"
   version="1.1"
   width="170.81412"
   height="41.900002">
  <metadata
     id="metadata10">
    <rdf:RDF>
      <cc:Work
         rdf:about="">
        <dc:format>image/svg+xml</dc:format>
        <dc:type
           rdf:resource="http://purl.org/dc/dcmitype/StillImage" />
        <dc:title></dc:title>
      </cc:Work>
    </rdf:RDF>
  </metadata>
  <defs
     id="defs8" />
  <g
     transform="translate(66.963607,42.688385)"
     id="g836">
    <path
       style="fill:#72ae18;fill-opacity:1"
       d="m -30.463607,-15.438385 v -16.1 l -10.5,-7.35 -10.5,7.35 v 6.45 h -3 v -7.95 l 13.5,-9.65 13.5,9.65 v 17.6 z m -10.5,-23.45 q 0,0 0,0 0,0 0,0 z m 1,10.2 h 2 v -2 h -2 z m -4,0 h 2 v -2 h -2 z m 4,4 h 2 v -2 h -2 z m -4,0 h 2 v -2 h -2 z m 3.3,23.90000048 -15.55,-4.44999998 v 2.85 h -10.75 V -22.088385 h 15.45 l 12.75,4.8 q 1.35,0.5 2.275,1.625 0.925,1.125 0.925,3.225 h 5.7 q 2.1,0 3.5,1.5 1.4,1.5000005 1.4,4.0500005 v 1.3 z m -23.3,-4.59999998 h 4.7 V -19.088385 h -4.7 z m 23.1,1.5 12.8,-3.9 q -0.3,-0.95 -0.75,-1.3 -0.45,-0.35 -1.05,-0.35 h -10.35 q -1.5,0 -2.775,-0.2 -1.275,-0.2 -2.425,-0.5500005 l -4.05,-1.25 1.1,-2.9 3.65,1.2 q 1.25,0.4 2.375,0.55 1.125,0.15 3.575,0.15 0,-0.6 -0.225,-1.175 -0.225,-0.575 -0.775,-0.825 l -12.25,-4.65 h -4.2 v 10.7000005 z m -18.4,-8.3500005 z m 20.5,-0.2 q 0,0 0,0 0,0 0,0 0,0 0,0 0,0 0,0 0,0 0,0 0,0 0,0 0,0 0,0 0,0 0,0 z m -20.5,0.2 z m 3.05,0 q 0,0 0,0 0,0 0,0 0,0 0,0 0,0 0,0 0,0 0,0 0,0 0,0 0,0 0,0 0,0 0,0 z"
       id="path2" />
    <text
       xml:space="preserve"
       style="font-style:normal;font-variant:normal;font-weight:bold;font-stretch:normal;font-size:40px;line-height:1.25;font-family:Montserrat;-inkscape-font-specification:'Montserrat Bold';letter-spacing:0px;word-spacing:0px;fill:#ffffff;fill-opacity:1;stroke:none"
       x="-23.947144"
       y="-24.306023"
       id="text819"><tspan
         id="tspan817"
         x="-23.947144"
         y="-24.306023"
         style="font-size:18.66666603px;fill:#ffffff">DREAM</tspan></text>
    <text
       xml:space="preserve"
       style="font-style:normal;font-variant:normal;font-weight:bold;font-stretch:normal;font-size:40px;line-height:1.25;font-family:Montserrat;-inkscape-font-specification:'Montserrat Bold';letter-spacing:0px;word-spacing:0px;fill:#72ae18;fill-opacity:1;stroke:none"
       x="50.183872"
       y="-24.366791"
       id="text823"><tspan
         id="tspan821"
         x="50.183872"
         y="-24.366791"
         style="font-style:normal;font-variant:normal;font-weight:300;font-stretch:normal;font-size:18.66666603px;font-family:Montserrat;-inkscape-font-specification:'Montserrat Light';fill:#72ae18;fill-opacity:1">LAND</tspan></text>
    <text
       xml:space="preserve"
       style="font-style:normal;font-variant:normal;font-weight:bold;font-stretch:normal;font-size:16px;line-height:1.25;font-family:Montserrat;-inkscape-font-specification:'Montserrat Bold';letter-spacing:0px;word-spacing:0px;fill:#ffffff;fill-opacity:1;stroke:none"
       x="-23.237288"
       y="-11.423729"
       id="text827"><tspan
         id="tspan825"
         x="-23.237288"
         y="-11.423729"
         style="font-style:normal;font-variant:normal;font-weight:normal;font-stretch:normal;font-size:10.66666698px;font-family:Montserrat;-inkscape-font-specification:Montserrat;fill:#ffffff">SINGLE PROPERTY</tspan></text>
  </g>
</svg>
